<svg xmlns="http://www.w3.org/2000/svg" viewBox="0 0 1177.76 439.7"><defs><style>.a{fill:#11192b;}</style></defs><polygon class="a" points="570.42 171.06 532.27 102.62 517.12 102.62 517.12 210.12 531.76 210.12 531.76 129.53 566.34 190.95 574.65 190.95 609.08 129.54 609.08 210.12 609.66 210.12 623.73 210.12 623.73 102.62 608.72 102.62 570.42 171.06"/><polygon class="a" points="710.71 102.62 698.84 102.62 654.63 210.12 670.27 210.12 704.76 120.35 739.13 210.12 754.77 210.12 710.71 102.62"/><polygon class="a" points="800.16 210.12 800.16 102.77 785.52 102.77 785.52 210.12 786.1 210.12 800.16 210.12"/><path class="a" d="M901.28,206.26a46.74,46.74,0,0,0,16.45-10.92,47.6,47.6,0,0,0,10.46-17,64,64,0,0,0,3.63-22.14,65.3,65.3,0,0,0-3.25-20.78,47.9,47.9,0,0,0-9.78-17,46.27,46.27,0,0,0-16.3-11.53,56.45,56.45,0,0,0-22.62-4.24H842.44v107.5h37.43A57,57,0,0,0,901.28,206.26Zm-44.2-90.5h22.79a39.32,39.32,0,0,1,15.79,3,33.78,33.78,0,0,1,11.71,8.32,35.13,35.13,0,0,1,7.22,12.75,55.63,55.63,0,0,1,0,32.59,37.8,37.8,0,0,1-7.08,12.91,31.91,31.91,0,0,1-11.63,8.53,39.22,39.22,0,0,1-16,3.1H857.08Z"/><polygon class="a" points="1041.31 196.98 1040.73 196.98 982.6 196.98 982.6 161.44 1032.47 161.44 1032.47 149.05 982.6 149.05 982.6 115.76 1039.96 115.76 1039.96 102.62 967.95 102.62 967.95 210.12 1041.31 210.12 1041.31 196.98"/><polygon class="a" points="1156.08 210.12 1168.32 210.12 1168.32 102.77 1153.68 102.77 1153.68 184.37 1088.64 102.62 1077.29 102.62 1077.29 210.12 1091.93 210.12 1091.93 130.02 1156.08 210.12"/><polygon class="a" points="555.59 346.71 520.79 258.3 520.39 258.3 505.3 258.3 549.36 365.81 561.82 365.81 605.74 258.3 590.25 258.3 555.59 346.71"/><path class="a" d="M713.3,274.83a52.7,52.7,0,0,0-15.9-12.5,44.28,44.28,0,0,0-20.63-4.78A46.15,46.15,0,0,0,656.52,262a51.16,51.16,0,0,0-16.13,12,56.83,56.83,0,0,0-10.67,17.4,55.92,55.92,0,0,0-3.86,20.58,57.64,57.64,0,0,0,3.63,20.12,55.62,55.62,0,0,0,10.29,17.48,51.09,51.09,0,0,0,16,12.28,48.39,48.39,0,0,0,41,.15,51,51,0,0,0,16.06-12,56.44,56.44,0,0,0,10.6-17.33,55.67,55.67,0,0,0,3.85-20.58,57.85,57.85,0,0,0-13.92-37.37Zm-36.68,78.43a31.9,31.9,0,0,1-14.72-3.38,35.3,35.3,0,0,1-11.35-9.14,42.66,42.66,0,0,1-7.31-13.23,46.94,46.94,0,0,1-.07-30.55,42.38,42.38,0,0,1,7.16-13.15,36.29,36.29,0,0,1,11.28-9.29,31.5,31.5,0,0,1,15-3.53,31.18,31.18,0,0,1,14.48,3.38,37.12,37.12,0,0,1,11.36,9.07,40.81,40.81,0,0,1,7.38,13.15,46.76,46.76,0,0,1,2.59,15.46A47.42,47.42,0,0,1,710,327a42.2,42.2,0,0,1-7.09,13.22,36.64,36.64,0,0,1-11.28,9.44A30.81,30.81,0,0,1,676.62,353.26Z"/><polygon class="a" points="792.25 313.15 760.38 258.3 760.05 258.3 744.19 258.3 784.93 326.29 784.93 365.81 799.57 365.81 799.57 326.59 840.46 258.3 824.42 258.3 792.25 313.15"/><polygon class="a" points="904.08 258.3 892.21 258.3 848 365.81 863.64 365.81 898.14 276.03 932.5 365.81 948.14 365.81 904.08 258.3"/><path class="a" d="M1031.32,323h22.91v13.88c-9.18,11-19.39,16.41-30.72,16.41a32.32,32.32,0,0,1-14.42-3.24,35.59,35.59,0,0,1-11.5-8.91A43.75,43.75,0,0,1,989.9,328a44.77,44.77,0,0,1-2.8-15.9,48,48,0,0,1,2.51-15.46,42.27,42.27,0,0,1,7.09-13.16,35.55,35.55,0,0,1,11.06-9.13,30.14,30.14,0,0,1,14.4-3.46,35.1,35.1,0,0,1,17.54,4.42,31.72,31.72,0,0,1,12.5,13.54l.31.59,11.29-7.85-.23-.46a43.39,43.39,0,0,0-15.4-17c-6.76-4.36-15.35-6.53-25.71-6.53a46.1,46.1,0,0,0-20,4.4,49.46,49.46,0,0,0-15.91,11.9,57,57,0,0,0-14.23,37.9A55.19,55.19,0,0,0,976.16,332a59.42,59.42,0,0,0,10.52,17.47,52.76,52.76,0,0,0,15.82,12.34,43,43,0,0,0,20,4.7c11.92,0,22.54-4.79,31.77-14.27v13.53h12.55V311.62h-35.46Z"/><polygon class="a" points="1177.18 352.66 1119.05 352.66 1119.05 317.13 1168.93 317.13 1168.93 304.73 1119.05 304.73 1119.05 271.44 1176.42 271.44 1176.42 258.3 1104.41 258.3 1104.41 365.81 1177.77 365.81 1177.77 352.66 1177.18 352.66"/><path class="a" d="M375.31,64.39A219.86,219.86,0,1,0,439.7,219.85,219.22,219.22,0,0,0,375.31,64.39ZM366,366a206.68,206.68,0,1,1,60.54-146.15A206,206,0,0,1,366,366Z"/><path class="a" d="M129.46,215.17v92.29l2.38,2,90.41,74.86,88-76.94V214.74L221,282.64ZM297.08,241.5v59.87L222,367l-79.39-65.74V241.07l78.36,58Z"/><path class="a" d="M335.11,160.29l-45.41,34V157.65l-23.79-7V111.13L224,98.71V64.05H210.82V98.68L168,111.1v39.63l-23.79,6.9V190l-39.64-29.7-7.9,10.54L221,263.07l122-92.24-7.9-10.54ZM181.19,121l36.19-10.5L252.74,121v25.75l-35.08-10.38-36.47,10.58ZM157.4,199.85V167.52L211.06,152v53.93h13.17V152l52.3,15.49v36.68L221,246.62Z"/></svg>